<svg width="5em" height="5em" viewBox="0 -6 34 34" xmlns="http://www.w3.org/2000/svg"><defs><linearGradient x1="50%" y1="0%" x2="50%" y2="100%" id="a"><stop offset="0%" stop-color="#90f"/><stop offset="100%" stop-color="#46f"/></linearGradient></defs><path d="M1480.917 170.22c.422.214.755.57.936 1.007l3.795 9.178 7.796-9.5a2.02 2.02 0 0 1 2.813-.293c.47.373.743.936.743 1.531v16.904c0 1.63-1.343 2.953-3 2.953h-28c-1.657 0-3-1.322-3-2.953v-16.904c0-1.088.895-1.97 2-1.97.604 0 1.176.27 1.556.732l7.798 9.5 3.794-9.178a2.01 2.01 0 0 1 2.459-1.134l.147.053z" transform="translate(-1463 -170)" fill="url(#a)"/></svg>