<svg width="5em" height="5em" xmlns="http://www.w3.org/2000/svg" viewBox="0 0 358.966 358.966" xml:space="preserve"><path d="M358.966 143.652c0-11.38-9.047-20.582-20.183-20.582-.301 0-.602.024-.894.041l-.154-.569H232.323l-30.076-92.544-.268-.016c-.293-12.404-10.234-22.419-22.5-22.419-12.03 0-21.817 9.616-22.459 21.736h-.081l-30.311 93.243H25.247c-1.13-.179-2.276-.301-3.471-.301C9.754 122.242 0 132.175 0 144.449c0 9.673 6.088 17.875 14.55 20.923l79.424 57.697-31.986 98.47.602.447a21.6 21.6 0 0 0-1.26 7.259c0 11.811 9.397 21.386 20.996 21.386 5.064 0 9.714-1.845 13.347-4.91l.236.195 83.562-60.72 84.854 61.655.406-.276c3.56 3.008 8.137 4.828 13.111 4.828 11.372 0 20.582-9.397 20.582-20.972 0-2.122-.309-4.154-.886-6.08l.293-.179-32.839-101.103 83.919-60.981-.171-.553a20.68 20.68 0 0 0 10.226-17.883"  fill="url(#a)" ></path><defs><linearGradient x1="50%" y1="0%" x2="50%" y2="100%" id="a"><stop offset="0%" stop-color="#90f"/><stop offset="50%" stop-color="#46f"/><stop offset="100%" stop-color="#0f0"/></linearGradient></defs></svg>